{"title":"Terminator 3:Rise of the Machines(2003)MP-4[DaScubaDude]","uid":12588093,"size":1332426982,"categoryP":"video","categoryS":"movies","magnet":"?xt=urn:btih:40c5f0a19278a9f925dc9dbcdf6deb4405ca23fd&amp;dn=Terminator+3%3ARise+of+the+Machines%282003%29MP-4%5BDaScubaDude%5D&amp;tr=udp%3A%2F%2Ftracker.leechers-paradise.org%3A6969&amp;tr=udp%3A%2F%2Fzer0day.ch%3A1337&amp;tr=udp%3A%2F%2Fopen.demonii.com%3A1337&amp;tr=udp%3A%2F%2Ftracker.coppersurfer.tk%3A6969&amp;tr=udp%3A%2F%2Fexodus.desync.com%3A6969","seeders":0,"leechers":0,"uploader":"dascuba","files":1,"time":1445054481,"description":"Terminator 3: Rise of the Machines (2003)\r\nR  |  109 min  |  Action, Sci-Fi  |  2 July 2003 (USA)\r\n6.4 Your rating:   -/10   Ratings: 6.4/10 from 284,099 users   Metascore: 66/100 \r\nReviews: 1,673 user | 277 critic | 41 from Metacritic.com\r\nA cybernetic warrior from a post-apocalyptic future travels back in time to protect a 19-year old drifter and his future wife from a most advanced robotic assassin and to ensure they both survive a nuclear attack.\r\n\r\nDirector: Jonathan Mostow\r\nWriters: James Cameron (characters), Gale Anne Hurd (characters), 5 more credits »\r\nStars: Arnold Schwarzenegger, Nick Stahl, Kristanna Loken\r\n\r\nGeneral\r\nComplete name                            : C:Terminator 3TERMINATOR_3_Title1.mp4\r\nFormat                                   : MPEG-4\r\nFormat profile                           : Base Media\r\nCodec ID                                 : isom\r\nFile size                                : 1.24 GiB\r\nDuration                                 : 1h 48mn\r\nOverall bit rate mode                    : Constant\r\nOverall bit rate                         : 1 631 Kbps\r\nMovie name                               : TERMINATOR_3\r\nGenre                                    : Science_Fiction\r\nWriting application                      : Lavf54.6.100\r\n\r\nVideo\r\nID                                       : 1\r\nFormat                                   : MPEG-4 Visual\r\nFormat settings, BVOP                    : No\r\nFormat settings, QPel                    : No\r\nFormat settings, GMC                     : No warppoints\r\nFormat settings, Matrix                  : Default (H.263)\r\nCodec ID                                 : 20\r\nDuration                                 : 1h 48mn\r\nBit rate mode                            : Constant\r\nBit rate                                 : 1 498 Kbps\r\nWidth                                    : 720 pixels\r\nHeight                                   : 404 pixels\r\nDisplay aspect ratio                     : 16:9\r\nFrame rate mode                          : Constant\r\nFrame rate                               : 29.970 fps\r\nColor space                              : YUV\r\nChroma subsampling                       : 4:2:0\r\nBit depth                                : 8 bits\r\nScan type                                : Progressive\r\nCompression mode                         : Lossy\r\nBits/(Pixel*Frame)                       : 0.172\r\nStream size                              : 1.14 GiB (92%)\r\nWriting library                          : Lavc54.23.100\r\n\r\nAudio\r\nID                                       : 2\r\nFormat                                   : MPEG Audio\r\nFormat version                           : Version 1\r\nFormat profile                           : Layer 3\r\nCodec ID                                 : 6B\r\nDuration                                 : 1h 48mn\r\nBit rate mode                            : Constant\r\nBit rate                                 : 128 Kbps\r\nChannel(s)                               : 2 channels\r\nSampling rate                            : 44.1 KHz\r\nCompression mode                         : Lossy\r\nStream size                              : 99.7 MiB (8%)\r\nWriting library                          : LAME3.99.5","torrent":{"xt":"urn:btih:40c5f0a19278a9f925dc9dbcdf6deb4405ca23fd","amp;dn":"Terminator+3%3ARise+of+the+Machines%282003%29MP-4%5BDaScubaDude%5D","amp;tr":["udp%3A%2F%2Ftracker.leechers-paradise.org%3A6969","udp%3A%2F%2Fzer0day.ch%3A1337","udp%3A%2F%2Fopen.demonii.com%3A1337","udp%3A%2F%2Ftracker.coppersurfer.tk%3A6969","udp%3A%2F%2Fexodus.desync.com%3A6969"],"infoHash":"40c5f0a19278a9f925dc9dbcdf6deb4405ca23fd","infoHashBuffer":{"type":"Buffer","data":[64,197,240,161,146,120,169,249,37,220,157,188,223,109,235,68,5,202,35,253]},"announce":[],"urlList":[]}}